<svg xmlns="http://www.w3.org/2000/svg" xmlns:xlink="http://www.w3.org/1999/xlink" width="500" zoomAndPan="magnify" viewBox="0 0 375 374.999991" height="500" preserveAspectRatio="xMidYMid meet" version="1.0"><defs><clipPath id="ff022d1bd1"><path d="M 15.621094 15.621094 L 359.121094 15.621094 L 359.121094 359.121094 L 15.621094 359.121094 Z M 15.621094 15.621094 " clip-rule="nonzero"/></clipPath></defs><g clip-path="url(#ff022d1bd1)"><path fill="#ffffff" d="M 228.761719 337.695312 C 253.679688 330.859375 276.105469 318 294.355469 300.769531 C 282.550781 295.671875 269.554688 291.394531 255.660156 288.089844 C 253.398438 294.660156 250.910156 300.875 248.226562 306.675781 C 242.582031 318.90625 236.03125 329.382812 228.761719 337.703125 Z M 306.078125 288.425781 C 327.613281 263.148438 341.222656 230.890625 343.023438 195.515625 L 271.039062 195.515625 C 270.425781 223.519531 266.613281 249.796875 260.390625 272.679688 C 276.882812 276.683594 292.25 282 306.078125 288.425781 Z M 239.769531 284.804688 C 225.699219 282.328125 210.871094 280.832031 195.515625 280.441406 L 195.515625 342.054688 C 209.910156 337.839844 223.203125 322.527344 233.628906 299.9375 C 235.820312 295.1875 237.875 290.132812 239.769531 284.804688 Z M 179.410156 280.441406 C 164.054688 280.832031 149.226562 282.328125 135.15625 284.804688 C 137.050781 290.132812 139.105469 295.1875 141.296875 299.9375 C 151.722656 322.515625 165.015625 337.832031 179.410156 342.054688 Z M 119.273438 288.089844 C 105.371094 291.394531 92.386719 295.671875 80.582031 300.769531 C 98.832031 318 121.253906 330.859375 146.171875 337.695312 C 138.894531 329.382812 132.34375 318.90625 126.710938 306.667969 C 124.035156 300.863281 121.550781 294.648438 119.273438 288.078125 Z M 68.859375 288.4375 C 82.6875 282.011719 98.054688 276.683594 114.546875 272.691406 C 108.3125 249.804688 104.507812 223.539062 103.898438 195.523438 L 31.914062 195.523438 C 33.714844 230.902344 47.320312 263.160156 68.859375 288.4375 Z M 130.300781 269.34375 C 145.921875 266.476562 162.390625 264.75 179.421875 264.328125 L 179.421875 195.523438 L 120.011719 195.523438 C 120.621094 222.496094 124.296875 247.636719 130.300781 269.34375 Z M 195.535156 264.328125 C 212.566406 264.738281 229.035156 266.46875 244.65625 269.34375 C 250.648438 247.636719 254.335938 222.496094 254.945312 195.523438 L 195.535156 195.523438 Z M 228.773438 37.230469 C 236.050781 45.542969 242.601562 56.019531 248.238281 68.246094 C 250.910156 74.050781 253.398438 80.265625 255.671875 86.835938 C 269.574219 83.53125 282.558594 79.253906 294.367188 74.15625 C 276.113281 56.925781 253.679688 44.066406 228.773438 37.230469 Z M 260.402344 102.234375 C 266.636719 125.121094 270.4375 151.386719 271.046875 179.402344 L 343.03125 179.402344 C 341.230469 144.023438 327.625 111.765625 306.085938 86.488281 C 292.257812 92.914062 276.902344 98.242188 260.402344 102.234375 Z M 103.898438 179.402344 C 104.507812 151.398438 108.320312 125.121094 114.546875 102.234375 C 98.042969 98.230469 82.6875 92.914062 68.859375 86.488281 C 47.3125 111.765625 33.714844 144.023438 31.914062 179.402344 Z M 119.285156 86.835938 C 121.550781 80.265625 124.035156 74.050781 126.71875 68.246094 C 132.367188 56.019531 138.917969 45.542969 146.183594 37.230469 C 121.265625 44.066406 98.851562 56.925781 80.589844 74.15625 C 92.40625 79.253906 105.394531 83.53125 119.285156 86.835938 Z M 233.648438 74.988281 C 223.222656 52.40625 209.933594 37.09375 195.535156 32.871094 L 195.535156 94.484375 C 210.890625 94.09375 225.71875 92.597656 239.789062 90.121094 C 237.894531 84.792969 235.839844 79.738281 233.648438 74.988281 Z M 179.433594 32.871094 C 165.035156 37.085938 151.742188 52.398438 141.316406 74.988281 C 139.128906 79.738281 137.074219 84.792969 135.175781 90.121094 C 149.25 92.597656 164.078125 94.09375 179.433594 94.484375 Z M 130.3125 105.582031 C 124.320312 127.289062 120.632812 152.429688 120.023438 179.402344 L 179.433594 179.402344 L 179.433594 110.597656 C 162.402344 110.1875 145.929688 108.457031 130.3125 105.582031 Z M 254.945312 179.402344 C 254.335938 152.4375 250.660156 127.289062 244.65625 105.582031 C 229.035156 108.449219 212.566406 110.175781 195.535156 110.597656 L 195.535156 179.402344 Z M 309.027344 308.996094 C 277.914062 340.09375 234.945312 359.335938 187.488281 359.335938 C 140.023438 359.335938 97.050781 340.09375 65.953125 308.996094 C 34.851562 277.882812 15.609375 234.925781 15.609375 187.457031 C 15.609375 140 34.851562 97.019531 65.953125 65.921875 C 97.0625 34.820312 140.023438 15.578125 187.488281 15.578125 C 234.945312 15.578125 277.925781 34.820312 309.027344 65.921875 C 340.125 97.03125 359.367188 140 359.367188 187.457031 C 359.367188 234.925781 340.125 277.894531 309.027344 308.996094 Z M 309.027344 308.996094 " fill-opacity="1" fill-rule="nonzero"/></g></svg>